# xmcd
#
# Track frame offsets:
#	150
#	18415
#	34560
#	50652
#	68295
#	83675
#	103142
#	121537
#	136652
#	151747
#	167817
#	185777
#	204397
#	223115
#	239787
#	262497
#	294175
#
# Disc length: 3936 seconds
#
# Revision: 1
# Processed by: cddbd v1.5.2PL0 Copyright (c) Steve Scherf et al.
# Submitted via: audiograbber 1.83.01
#
DISCID=ed0f5e11
DTITLE=Various Artist - MH1121
DYEAR=1900
DGENRE=Karaoke
TTITLE0=Cagle, Chris - I Breathe In, I Breathe Out
TTITLE1=Holy, Steve - Good Morning Beautiful
TTITLE2=Vassar, Phil - That's When I Love You
TTITLE3=Rascal Flatts - I'm Movin' On
TTITLE4=Keith, Toby - My List
TTITLE5=McGraw, Tim - Cowboy In Me
TTITLE6=Jackson, Alan - Drive (For Daddy Gene)
TTITLE7=Paisley, Brad - I'm Gonna Miss Her (The Fishin' Song)
TTITLE8=Azar, Steve - I Don't Have To Be Me ('Til Monday)
TTITLE9=Steiner, Tommy Shane - What If She's An Angel
TTITLE10=Brooks and Dunn - Long Goodbye
TTITLE11=Chesney, Kenny - Young
TTITLE12=Lonestar - Not A Day Goes By
TTITLE13=Strait, George - Living And Living Well
TTITLE14=Nickel Creek - Lighthouse's Tale
TTITLE15=Tritt, Travis - Modern Day Bonnie and Clyde
TTITLE16=Data - Data Track
EXTD=
EXTT0=
EXTT1=
EXTT2=
EXTT3=
EXTT4=
EXTT5=
EXTT6=
EXTT7=
EXTT8=
EXTT9=
EXTT10=
EXTT11=
EXTT12=
EXTT13=
EXTT14=
EXTT15=
EXTT16=
PLAYORDER=
